<svg width="19" height="23" viewBox="0 0 19 23" fill="none" xmlns="http://www.w3.org/2000/svg">
<path d="M15.9544 12.5739C15.9445 10.7623 16.7639 9.39495 18.4225 8.38797C17.4945 7.06013 16.0926 6.32958 14.2415 6.18643C12.4892 6.04821 10.5739 7.20822 9.87298 7.20822C9.13255 7.20822 7.4345 6.23579 6.10173 6.23579C3.34733 6.28022 0.420166 8.4324 0.420166 12.8108C0.420166 14.1041 0.657103 15.4401 1.13098 16.819C1.76281 18.6306 4.04333 23.0731 6.42258 22.9991C7.6665 22.9695 8.54514 22.1155 10.1642 22.1155C11.7339 22.1155 12.5484 22.9991 13.9355 22.9991C16.3345 22.9645 18.3978 18.9267 19 17.1102C15.7816 15.5948 15.9544 12.6677 15.9544 12.5739ZM13.1605 4.46863C14.5081 2.86931 14.3847 1.41313 14.3452 0.889893C13.1555 0.958999 11.7783 1.69943 10.9935 2.61262C10.1297 3.58999 9.62123 4.79936 9.72983 6.16175C11.0182 6.26047 12.193 5.59902 13.1605 4.46863Z" fill="black"/>
</svg>
