<svg width="15" height="15" viewBox="0 0 15 15" fill="none" xmlns="http://www.w3.org/2000/svg">
<path d="M13.2267 7.33166C13.1798 5.77506 12.613 4.45335 11.5262 3.36654C10.4394 2.27973 9.1177 1.71291 7.5611 1.66609V0.44873C8.50795 0.469534 9.39446 0.663587 10.2206 1.03089C11.0468 1.39819 11.7684 1.89035 12.3854 2.50737C13.0024 3.12438 13.4946 3.84597 13.8619 4.67214C14.2292 5.49829 14.4232 6.3848 14.444 7.33166H13.2267ZM9.98029 7.33166C9.93346 6.68134 9.68113 6.12597 9.22331 5.66555C8.76549 5.20512 8.21142 4.95409 7.5611 4.91247V3.69512C8.54853 3.73674 9.38977 4.10637 10.0848 4.80402C10.7799 5.50168 11.1508 6.34423 11.1976 7.33166H9.98029ZM13.5528 14.4487C12.0233 14.4487 10.4867 14.0931 8.94315 13.3819C7.39956 12.6708 5.98005 11.6674 4.68462 10.372C3.3944 9.07659 2.39369 7.65839 1.68251 6.11741C0.971317 4.57642 0.615723 3.04115 0.615723 1.51162C0.615723 1.26814 0.696882 1.06394 0.859202 0.899024C1.02152 0.734094 1.22442 0.65163 1.4679 0.65163H4.11492C4.3199 0.65163 4.50069 0.718485 4.65729 0.852196C4.81389 0.985906 4.91351 1.15109 4.95616 1.34774L5.42127 3.73568C5.45353 3.95731 5.44676 4.14772 5.40098 4.30692C5.3552 4.46611 5.273 4.59982 5.15437 4.70803L3.27991 6.53256C3.58166 7.08507 3.92633 7.60766 4.31392 8.10034C4.70152 8.59303 5.1211 9.06361 5.57267 9.51207C6.01802 9.95741 6.49146 10.371 6.99298 10.7529C7.49451 11.1348 8.0361 11.4901 8.61774 11.8189L10.4391 9.98186C10.5661 9.84972 10.7198 9.75712 10.9004 9.70406C11.0809 9.65099 11.2684 9.63799 11.463 9.66504L13.7167 10.1239C13.9217 10.178 14.089 10.2826 14.2185 10.4376C14.3481 10.5926 14.4128 10.7685 14.4128 10.9652V13.5966C14.4128 13.84 14.3304 14.0429 14.1654 14.2053C14.0005 14.3676 13.7963 14.4487 13.5528 14.4487ZM2.704 5.38074L4.1524 3.99478C4.17841 3.97396 4.19532 3.94535 4.20312 3.90893C4.21093 3.8725 4.20963 3.83869 4.19923 3.80748L3.84649 1.99387C3.83608 1.95225 3.81788 1.92103 3.79186 1.90023C3.76585 1.87941 3.73204 1.869 3.69042 1.869H1.95484C1.92363 1.869 1.89762 1.87941 1.8768 1.90023C1.85598 1.92103 1.84558 1.94705 1.84558 1.97827C1.8872 2.53286 1.97798 3.09629 2.11793 3.66858C2.25789 4.24086 2.45324 4.81158 2.704 5.38074ZM9.76487 12.3948C10.3028 12.6456 10.8639 12.8373 11.4482 12.9699C12.0324 13.1026 12.5784 13.1814 13.0862 13.2064C13.1174 13.2064 13.1434 13.196 13.1642 13.1752C13.185 13.1544 13.1954 13.1283 13.1954 13.0971V11.3897C13.1954 11.348 13.185 11.3142 13.1642 11.2882C13.1434 11.2622 13.1122 11.244 13.0706 11.2336L11.3662 10.8871C11.335 10.8767 11.3077 10.8754 11.2843 10.8832C11.2609 10.891 11.2362 10.9079 11.2102 10.9339L9.76487 12.3948Z" fill="black"/>
</svg>
