<svg width="16" height="19" viewBox="0 0 16 19" fill="none"
    xmlns="http://www.w3.org/2000/svg">
    <path d="M5.68714 15.3291C5.18681 15.3291 4.76332 15.1557 4.41666 14.8091C4.06998 14.4624 3.89665 14.0389 3.89665 13.5386V2.2622C3.89665 1.76187 4.06998 1.33836 4.41666 0.991691C4.76332 0.645017 5.18681 0.47168 5.68714 0.47168H13.992C14.4924 0.47168 14.9159 0.645017 15.2625 0.991691C15.6092 1.33836 15.7825 1.76187 15.7825 2.2622V13.5386C15.7825 14.0389 15.6092 14.4624 15.2625 14.8091C14.9159 15.1557 14.4924 15.3291 13.992 15.3291H5.68714ZM5.68714 13.8434H13.992C14.0682 13.8434 14.1381 13.8116 14.2016 13.7481C14.2651 13.6846 14.2968 13.6148 14.2968 13.5386V2.2622C14.2968 2.186 14.2651 2.11614 14.2016 2.05264C14.1381 1.98915 14.0682 1.9574 13.992 1.9574H5.68714C5.61094 1.9574 5.54109 1.98915 5.4776 2.05264C5.4141 2.11614 5.38234 2.186 5.38234 2.2622V13.5386C5.38234 13.6148 5.4141 13.6846 5.4776 13.7481C5.54109 13.8116 5.61094 13.8434 5.68714 13.8434ZM2.22043 18.7958C1.72011 18.7958 1.29662 18.6224 0.949943 18.2758C0.603269 17.9291 0.429932 17.5056 0.429932 17.0053V4.2432H1.91565V17.0053C1.91565 17.0815 1.9474 17.1513 2.01089 17.2148C2.0744 17.2783 2.14424 17.3101 2.22043 17.3101H12.011V18.7958H2.22043Z" fill="#626262"/>
</svg>
