<svg width="19" height="15" viewBox="0 0 19 15" fill="none" xmlns="http://www.w3.org/2000/svg">
<path d="M2.37329 14.0913C1.90183 14.0913 1.50277 13.928 1.1761 13.6013C0.84943 13.2746 0.686096 12.8756 0.686096 12.4041V1.7785C0.686096 1.30704 0.84943 0.907978 1.1761 0.58131C1.50277 0.254642 1.90183 0.0913086 2.37329 0.0913086H16.7323C17.2037 0.0913086 17.6028 0.254642 17.9294 0.58131C18.2561 0.907978 18.4194 1.30704 18.4194 1.7785V12.4041C18.4194 12.8756 18.2561 13.2746 17.9294 13.6013C17.6028 13.928 17.2037 14.0913 16.7323 14.0913H2.37329ZM9.55277 7.61178L2.08608 2.83742V12.4041C2.08608 12.4879 2.113 12.5567 2.16686 12.6105C2.22071 12.6644 2.28952 12.6913 2.37329 12.6913H16.7323C16.816 12.6913 16.8848 12.6644 16.9387 12.6105C16.9925 12.5567 17.0195 12.4879 17.0195 12.4041V2.83742L9.55277 7.61178ZM9.55277 6.15797L16.8759 1.49129H2.22967L9.55277 6.15797ZM2.08608 2.83742V1.49129V12.4041C2.08608 12.4879 2.113 12.5567 2.16686 12.6105C2.22071 12.6644 2.28952 12.6913 2.37329 12.6913H2.08608V2.83742Z" fill="#9AA5B6"/>
</svg>
