<svg width="18" height="18" viewBox="0 0 18 18" fill="none" xmlns="http://www.w3.org/2000/svg">
<path d="M2.3077 17.6733C1.80257 17.6733 1.375 17.4983 1.025 17.1483C0.675 16.7983 0.5 16.3707 0.5 15.8656V2.48104C0.5 1.97591 0.675 1.54834 1.025 1.19834C1.375 0.84834 1.80257 0.67334 2.3077 0.67334H9.0096V2.17332H2.3077C2.23077 2.17332 2.16024 2.20537 2.09612 2.26947C2.03202 2.33358 1.99997 2.40411 1.99997 2.48104V15.8656C1.99997 15.9425 2.03202 16.0131 2.09612 16.0772C2.16024 16.1413 2.23077 16.1733 2.3077 16.1733H9.0096V17.6733H2.3077ZM13.2308 13.4425L12.1923 12.3579L14.6269 9.92329H6.09613V8.42334H14.6269L12.1923 5.98872L13.2308 4.90414L17.5 9.17332L13.2308 13.4425Z" fill="#7F7D83"/>
</svg>
