<svg width="20" height="17" viewBox="0 0 20 17" fill="none" xmlns="http://www.w3.org/2000/svg">
<path d="M9.52062 12.2093C10.5516 12.2093 11.4272 11.8485 12.1475 11.1268C12.8678 10.4051 13.228 9.52879 13.228 8.49782C13.228 7.46687 12.8671 6.59124 12.1455 5.87093C11.4238 5.15062 10.5475 4.79046 9.51648 4.79046C8.48553 4.79046 7.6099 5.1513 6.88959 5.87298C6.16928 6.59467 5.80912 7.47099 5.80912 8.50196C5.80912 9.53292 6.16996 10.4085 6.89164 11.1289C7.61333 11.8492 8.48966 12.2093 9.52062 12.2093ZM9.51855 10.9565C8.83615 10.9565 8.25612 10.7177 7.77844 10.24C7.30076 9.76233 7.06192 9.18229 7.06192 8.49989C7.06192 7.81749 7.30076 7.23745 7.77844 6.75978C8.25612 6.2821 8.83615 6.04326 9.51855 6.04326C10.201 6.04326 10.781 6.2821 11.2587 6.75978C11.7364 7.23745 11.9752 7.81749 11.9752 8.49989C11.9752 9.18229 11.7364 9.76233 11.2587 10.24C10.781 10.7177 10.201 10.9565 9.51855 10.9565ZM9.5198 14.8689C7.42746 14.8689 5.521 14.2918 3.80042 13.1376C2.07985 11.9833 0.81304 10.4374 0 8.49989C0.81304 6.56235 2.07944 5.01646 3.79919 3.86222C5.51892 2.70798 7.42496 2.13086 9.5173 2.13086C11.6096 2.13086 13.5161 2.70798 15.2367 3.86222C16.9573 5.01646 18.2241 6.56235 19.0371 8.49989C18.2241 10.4374 16.9577 11.9833 15.2379 13.1376C13.5182 14.2918 11.6121 14.8689 9.5198 14.8689ZM9.51855 13.5042C11.2321 13.5042 12.8054 13.053 14.2385 12.1507C15.6715 11.2484 16.7671 10.0315 17.5254 8.49989C16.7671 6.96829 15.6715 5.75134 14.2385 4.84906C12.8054 3.94678 11.2321 3.49563 9.51855 3.49563C7.80497 3.49563 6.23167 3.94678 4.79863 4.84906C3.36559 5.75134 2.26996 6.96829 1.51174 8.49989C2.26996 10.0315 3.36559 11.2484 4.79863 12.1507C6.23167 13.053 7.80497 13.5042 9.51855 13.5042Z" fill="#9AA5B6"/>
</svg>
