<svg width="20" height="17" viewBox="0 0 20 17" fill="none" xmlns="http://www.w3.org/2000/svg">
<path d="M12.9512 8.90592L11.9294 7.88412C12.0659 7.13057 11.851 6.45314 11.2847 5.85184C10.7183 5.25053 10.0234 5.01811 9.19989 5.15458L8.17809 4.13278C8.38338 4.04063 8.59392 3.97152 8.80972 3.92545C9.02551 3.87937 9.26171 3.85633 9.51833 3.85633C10.5506 3.85633 11.4269 4.21648 12.1472 4.93677C12.8675 5.65706 13.2277 6.53336 13.2277 7.56567C13.2277 7.82229 13.2046 8.06141 13.1585 8.28304C13.1125 8.50466 13.0434 8.71229 12.9512 8.90592ZM15.8452 11.7369L14.8409 10.7956C15.4172 10.3559 15.9289 9.8744 16.3763 9.35124C16.8236 8.82808 17.2065 8.23289 17.525 7.56567C16.7668 6.0341 15.6787 4.81718 14.2609 3.91492C12.8431 3.01266 11.2622 2.56153 9.51833 2.56153C9.07857 2.56153 8.6464 2.59186 8.2218 2.65251C7.79721 2.71317 7.3802 2.80415 6.97077 2.92547L5.91048 1.86518C6.48555 1.63655 7.07286 1.468 7.67242 1.35951C8.27197 1.25103 8.88728 1.19679 9.51833 1.19679C11.6506 1.19679 13.5735 1.78468 15.2871 2.96047C17.0006 4.13628 18.2505 5.67135 19.0367 7.56567C18.6996 8.37869 18.2642 9.13747 17.7305 9.84201C17.1969 10.5465 16.5684 11.1782 15.8452 11.7369ZM16.5801 17L12.8988 13.3466C12.4322 13.5193 11.9151 13.6604 11.3477 13.7701C10.7802 13.8797 10.1704 13.9346 9.51833 13.9346C7.38021 13.9346 5.4573 13.3467 3.7496 12.1709C2.0419 10.9951 0.792034 9.46 0 7.56567C0.335945 6.76198 0.769872 6.01223 1.30178 5.31642C1.83369 4.62063 2.41926 4.01729 3.05849 3.50638L0.538901 0.958817L1.49774 0L17.5389 16.0412L16.5801 17ZM4.0173 4.46517C3.53672 4.84778 3.06926 5.30767 2.61491 5.84484C2.16057 6.38199 1.79283 6.95561 1.51171 7.56567C2.26991 9.09724 3.35793 10.3142 4.77577 11.2164C6.19361 12.1187 7.77446 12.5698 9.51833 12.5698C9.93243 12.5698 10.3448 12.5348 10.7554 12.4648C11.166 12.3948 11.5142 12.3225 11.8 12.2479L10.6487 11.0685C10.4935 11.1315 10.3139 11.1817 10.1097 11.219C9.90561 11.2563 9.70847 11.275 9.51833 11.275C8.48602 11.275 7.60972 10.9149 6.88943 10.1946C6.16914 9.47428 5.80899 8.59798 5.80899 7.56567C5.80899 7.38137 5.82766 7.18861 5.86499 6.9874C5.90232 6.78617 5.95248 6.60215 6.01546 6.43535L4.0173 4.46517Z" fill="#9AA5B6"/>
</svg>
