<svg width="19" height="20" viewBox="0 0 19 20" fill="none" xmlns="http://www.w3.org/2000/svg">
<path d="M6.73215 12.1384H16.0782L12.9744 8.06146L10.5975 11.0999L9.02827 9.15761L6.73215 12.1384ZM5.71292 15.7922C5.20779 15.7922 4.78023 15.6172 4.43025 15.2672C4.08025 14.9172 3.90525 14.4896 3.90525 13.9845V2.59994C3.90525 2.0948 4.08025 1.66724 4.43025 1.31724C4.78023 0.967236 5.20779 0.792236 5.71292 0.792236H17.0975C17.6026 0.792236 18.0302 0.967236 18.3802 1.31724C18.7302 1.66724 18.9052 2.0948 18.9052 2.59994V13.9845C18.9052 14.4896 18.7302 14.9172 18.3802 15.2672C18.0302 15.6172 17.6026 15.7922 17.0975 15.7922H5.71292ZM5.71292 14.2922H17.0975C17.1744 14.2922 17.2449 14.2602 17.309 14.1961C17.3731 14.1319 17.4052 14.0614 17.4052 13.9845V2.59994C17.4052 2.523 17.3731 2.45248 17.309 2.38836C17.2449 2.32426 17.1744 2.29221 17.0975 2.29221H5.71292C5.63599 2.29221 5.56547 2.32426 5.50137 2.38836C5.43726 2.45248 5.4052 2.523 5.4052 2.59994V13.9845C5.4052 14.0614 5.43726 14.1319 5.50137 14.1961C5.56547 14.2602 5.63599 14.2922 5.71292 14.2922ZM2.21295 19.2921C1.70783 19.2921 1.28027 19.1171 0.930273 18.7671C0.580273 18.4171 0.405273 17.9896 0.405273 17.4845V4.59994H1.90525V17.4845C1.90525 17.5614 1.9373 17.6319 2.0014 17.696C2.06552 17.7601 2.13603 17.7922 2.21295 17.7922H15.0975V19.2921H2.21295Z" fill="black" fill-opacity="0.6"/>
</svg>
