<svg width="23" height="23" viewBox="0 0 23 23" fill="none"
    xmlns="http://www.w3.org/2000/svg">
    <g clip-path="url(#clip0_24_392)">
        <path d="M22.4984 11.7549C22.4984 10.8121 22.4219 10.124 22.2564 9.41052H11.49V13.6661H17.8096C17.6822 14.7236 16.9942 16.3163 15.4652 17.3865L15.4438 17.529L18.8479 20.1661L19.0838 20.1896C21.2498 18.1892 22.4984 15.246 22.4984 11.7549Z" fill="#4285F4"/>
        <path d="M11.4899 22.9671C14.5859 22.9671 17.1851 21.9478 19.0836 20.1895L15.4651 17.3864C14.4968 18.0617 13.1972 18.5331 11.4899 18.5331C8.45746 18.5331 5.88374 16.5328 4.96628 13.7679L4.8318 13.7794L1.29214 16.5187L1.24585 16.6474C3.13154 20.3933 7.00489 22.9671 11.4899 22.9671Z" fill="#34A853"/>
        <path d="M4.96639 13.7679C4.72431 13.0544 4.58421 12.2899 4.58421 11.5C4.58421 10.71 4.72431 9.94554 4.95365 9.23204L4.94724 9.08008L1.36322 6.29669L1.24596 6.35247C0.468777 7.90692 0.0228271 9.65251 0.0228271 11.5C0.0228271 13.3475 0.468777 15.093 1.24596 16.6474L4.96639 13.7679Z" fill="#FBBC05"/>
        <path d="M11.4899 4.46683C13.6431 4.46683 15.0956 5.39694 15.9238 6.17421L19.1601 3.01435C17.1725 1.16688 14.5859 0.0328979 11.4899 0.0328979C7.00489 0.0328979 3.13154 2.60661 1.24585 6.35252L4.95354 9.23208C5.88374 6.46723 8.45746 4.46683 11.4899 4.46683Z" fill="#EB4335"/>
    </g>
    <defs>
        <clipPath id="clip0_24_392">
            <rect width="22.4756" height="23" fill="white" transform="translate(0.0228271)"/>
        </clipPath>
    </defs>
</svg>
