<svg width="16" height="17" viewBox="0 0 16 17" fill="none"
    xmlns="http://www.w3.org/2000/svg">
    <path d="M1.83854 16.5967C1.36811 16.5967 0.969917 16.4337 0.643962 16.1078C0.318007 15.7818 0.155029 15.3836 0.155029 14.9132V2.44816C0.155029 1.97773 0.318007 1.57954 0.643962 1.25358C0.969917 0.927626 1.36811 0.764648 1.83854 0.764648H7.71284V2.16158H1.83854C1.76689 2.16158 1.70121 2.19142 1.6415 2.25112C1.5818 2.31083 1.55196 2.37651 1.55196 2.44816V14.9132C1.55196 14.9848 1.5818 15.0505 1.6415 15.1102C1.70121 15.1699 1.76689 15.1998 1.83854 15.1998H14.3036C14.3752 15.1998 14.4409 15.1699 14.5006 15.1102C14.5603 15.0505 14.5902 14.9848 14.5902 14.9132V9.0389H15.9871V14.9132C15.9871 15.3836 15.8241 15.7818 15.4982 16.1078C15.1722 16.4337 14.774 16.5967 14.3036 16.5967H1.83854ZM5.94697 11.7862L4.96555 10.8048L13.6087 2.16158H9.93366V0.764648H15.9871V6.81808H14.5902V3.143L5.94697 11.7862Z" fill="#AFAFB1"/>
</svg>
