<svg width="26" height="32" viewBox="0 0 26 32" fill="none" xmlns="http://www.w3.org/2000/svg">
<path d="M3.76003 31.6642C2.95308 31.6642 2.2623 31.3768 1.68767 30.8022C1.11301 30.2275 0.825684 29.5367 0.825684 28.7298V13.4964C0.825684 12.6894 1.11301 11.9986 1.68767 11.424C2.2623 10.8493 2.95308 10.562 3.76003 10.562H5.69543V7.31552C5.69543 5.28857 6.40611 3.56441 7.82748 2.14304C9.24888 0.721672 10.973 0.0109863 13 0.0109863C15.0269 0.0109863 16.7511 0.721672 18.1725 2.14304C19.5939 3.56441 20.3046 5.28857 20.3046 7.31552V10.562H22.24C23.0469 10.562 23.7377 10.8493 24.3123 11.424C24.887 11.9986 25.1743 12.6894 25.1743 13.4964V28.7298C25.1743 29.5367 24.887 30.2275 24.3123 30.8022C23.7377 31.3768 23.0469 31.6642 22.24 31.6642H3.76003ZM13 23.9537C13.7887 23.9537 14.4594 23.6775 15.0119 23.1249C15.5644 22.5724 15.8406 21.9018 15.8406 21.1131C15.8406 20.3243 15.5644 19.6537 15.0119 19.1012C14.4594 18.5487 13.7887 18.2724 13 18.2724C12.2113 18.2724 11.5406 18.5487 10.9881 19.1012C10.4356 19.6537 10.1594 20.3243 10.1594 21.1131C10.1594 21.9018 10.4356 22.5724 10.9881 23.1249C11.5406 23.6775 12.2113 23.9537 13 23.9537ZM8.13026 10.562H17.8697V7.31552C17.8697 5.96281 17.3963 4.81301 16.4494 3.86612C15.5025 2.91922 14.3527 2.44578 13 2.44578C11.6473 2.44578 10.4975 2.91922 9.5506 3.86612C8.6037 4.81301 8.13026 5.96281 8.13026 7.31552V10.562Z" fill="#02988D"/>
</svg>
