<svg width="14" height="18" viewBox="0 0 14 18" fill="none" xmlns="http://www.w3.org/2000/svg">
<path d="M2.139 17.8413C1.70422 17.8413 1.33287 17.6873 1.02495 17.3794C0.717016 17.0715 0.563049 16.7001 0.563049 16.2654V8.08391C0.563049 7.64913 0.717016 7.27778 1.02495 6.96986C1.33287 6.66193 1.70422 6.50796 2.139 6.50796H3.17845V4.76436C3.17845 3.67575 3.56014 2.74975 4.32351 1.98637C5.0869 1.223 6.01291 0.841309 7.10152 0.841309C8.19014 0.841309 9.11614 1.223 9.87953 1.98637C10.6429 2.74975 11.0246 3.67575 11.0246 4.76436V6.50796H12.064C12.4988 6.50796 12.8702 6.66193 13.1781 6.96986C13.486 7.27778 13.64 7.64913 13.64 8.08391V16.2654C13.64 16.7001 13.486 17.0715 13.1781 17.3794C12.8702 17.6873 12.4988 17.8413 12.064 17.8413H2.139ZM2.139 16.5336H12.064C12.1423 16.5336 12.2066 16.5085 12.2569 16.4582C12.3072 16.4079 12.3323 16.3436 12.3323 16.2654V8.08391C12.3323 8.00567 12.3072 7.94139 12.2569 7.89109C12.2066 7.84079 12.1423 7.81564 12.064 7.81564H2.139C2.06076 7.81564 1.99648 7.84079 1.94618 7.89109C1.89588 7.94139 1.87073 8.00567 1.87073 8.08391V16.2654C1.87073 16.3436 1.89588 16.4079 1.94618 16.4582C1.99648 16.5085 2.06076 16.5336 2.139 16.5336ZM7.10152 13.7003C7.52513 13.7003 7.8853 13.5519 8.18203 13.2551C8.47878 12.9584 8.62715 12.5982 8.62715 12.1746C8.62715 11.751 8.47878 11.3909 8.18203 11.0941C7.8853 10.7974 7.52513 10.649 7.10152 10.649C6.67791 10.649 6.31775 10.7974 6.02101 11.0941C5.72427 11.3909 5.5759 11.751 5.5759 12.1746C5.5759 12.5982 5.72427 12.9584 6.02101 13.2551C6.31775 13.5519 6.67791 13.7003 7.10152 13.7003ZM4.48612 6.50796H9.71692V4.76436C9.71692 4.03786 9.46265 3.42034 8.9541 2.91179C8.44555 2.40324 7.82802 2.14896 7.10152 2.14896C6.37502 2.14896 5.7575 2.40324 5.24895 2.91179C4.7404 3.42034 4.48612 4.03786 4.48612 4.76436V6.50796Z" fill="#9AA5B6"/>
</svg>
