<svg width="30" height="28" viewBox="0 0 30 28" fill="none" xmlns="http://www.w3.org/2000/svg">
<path d="M25.7143 9.50623C24.5255 9.50623 23.514 9.08915 22.6799 8.25499C21.8457 7.42083 21.4286 6.40935 21.4286 5.22054C21.4286 4.03173 21.8457 3.02025 22.6799 2.18609C23.514 1.35191 24.5255 0.934814 25.7143 0.934814C26.9031 0.934814 27.9146 1.35191 28.7488 2.18609C29.5829 3.02025 30 4.03173 30 5.22054C30 6.40935 29.5829 7.42083 28.7488 8.25499C27.9146 9.08915 26.9031 9.50623 25.7143 9.50623ZM2.8172 27.2185C2.02998 27.2185 1.36364 26.9458 0.818184 26.4003C0.272728 25.8549 0 25.1885 0 24.4013V6.6591C0 5.87188 0.272728 5.20554 0.818184 4.66008C1.36364 4.11463 2.02998 3.8419 2.8172 3.8419H18.4376C18.3637 4.23151 18.3242 4.61862 18.3192 5.00321C18.3142 5.38784 18.3437 5.77994 18.4076 6.17953C18.5195 6.99073 18.7508 7.75096 19.1014 8.46024C19.452 9.16954 19.8961 9.80191 20.4336 10.3574L14.8052 13.9718L2.5774 6.17953L2.33763 8.42723L14.8052 16.3993L22.2767 11.631C22.7782 11.9468 23.3172 12.191 23.8936 12.3639C24.47 12.5367 25.0769 12.6231 25.7143 12.6231C26.3956 12.6231 27.0714 12.5257 27.7418 12.3309C28.4121 12.1361 29.035 11.8439 29.6104 11.4543V24.4013C29.6104 25.1885 29.3377 25.8549 28.7922 26.4003C28.2467 26.9458 27.5804 27.2185 26.7932 27.2185H2.8172Z" fill="#02988D"/>
</svg>
