<svg width="44" height="44" viewBox="0 0 44 44" fill="none"
    xmlns="http://www.w3.org/2000/svg">
    <circle cx="22" cy="22" r="21.5" fill="white" stroke="#D1D3D8"/>
    <path d="M26.971 18.7884C26.971 17.5184 26.4665 16.3005 25.5685 15.4025C24.6705 14.5045 23.4526 14 22.1826 14C20.9127 14 19.6947 14.5045 18.7967 15.4025C17.8987 16.3005 17.3942 17.5184 17.3942 18.7884C17.3942 24.3749 15 25.971 15 25.971H29.3652C29.3652 25.971 26.971 24.3749 26.971 18.7884Z" stroke="#121212" stroke-width="1.4" stroke-linecap="round" stroke-linejoin="round"/>
    <path d="M23.5631 29.1631C23.4228 29.4048 23.2214 29.6054 22.9791 29.7448C22.7368 29.8843 22.462 29.9577 22.1824 29.9577C21.9028 29.9577 21.6281 29.8843 21.3858 29.7448C21.1435 29.6054 20.9421 29.4048 20.8018 29.1631" stroke="#121212" stroke-width="1.4" stroke-linecap="round" stroke-linejoin="round"/>
    <circle cx="27" cy="16" r="3.5" fill="#34C759" stroke="white"/>
</svg>
