<svg width="12" height="19" viewBox="0 0 12 19" fill="none" xmlns="http://www.w3.org/2000/svg">
<path d="M1.64571 18.3301C1.21274 18.3301 0.846254 18.1801 0.546253 17.8801C0.246253 17.5801 0.0962524 17.2136 0.0962524 16.7806V1.87954C0.0962524 1.44657 0.246253 1.08008 0.546253 0.780079C0.846254 0.480078 1.21274 0.330078 1.64571 0.330078H9.68963C10.1226 0.330078 10.4891 0.480078 10.7891 0.780079C11.0891 1.08008 11.2391 1.44657 11.2391 1.87954V16.7806C11.2391 17.2136 11.0891 17.5801 10.7891 17.8801C10.4891 18.1801 10.1226 18.3301 9.68963 18.3301H1.64571V18.3301ZM1.38195 14.2752V16.7806C1.38195 16.8466 1.40942 16.907 1.46436 16.962C1.51932 17.0169 1.57977 17.0444 1.64571 17.0444H9.68963C9.75557 17.0444 9.81602 17.0169 9.87098 16.962C9.92592 16.907 9.9534 16.8466 9.9534 16.7806V14.2752H1.38195ZM5.66767 16.418C5.87756 16.418 6.0564 16.3441 6.2042 16.1963C6.352 16.0485 6.4259 15.8697 6.4259 15.6598C6.4259 15.4499 6.352 15.271 6.2042 15.1232C6.0564 14.9754 5.87756 14.9015 5.66767 14.9015C5.45779 14.9015 5.27894 14.9754 5.13114 15.1232C4.98334 15.271 4.90944 15.4499 4.90944 15.6598C4.90944 15.8696 4.98334 16.0485 5.13114 16.1963C5.27894 16.3441 5.45779 16.418 5.66767 16.418V16.418ZM1.38195 12.9894H9.9534V3.9729H1.38195V12.9894ZM1.38195 2.68723H9.9534V1.87954C9.9534 1.8136 9.92592 1.75315 9.87098 1.69819C9.81602 1.64325 9.75557 1.61577 9.68963 1.61577H1.64571C1.57977 1.61577 1.51932 1.64325 1.46436 1.69819C1.40942 1.75315 1.38195 1.8136 1.38195 1.87954V2.68723Z" fill="#9AA5B6"/>
</svg>
