<svg width="16" height="15" viewBox="0 0 16 15" fill="none" xmlns="http://www.w3.org/2000/svg">
<path d="M2.0592 13.3302V13.3552H2.0842H14.0842H14.1092V13.3302V12.6071C14.1092 12.3994 14.0489 12.207 13.9289 12.0305C13.8091 11.8545 13.6467 11.7112 13.4423 11.6005L13.4423 11.6005L13.4414 11.6C12.5783 11.1749 11.6981 10.8528 10.8008 10.6338C9.90348 10.4147 8.99792 10.3052 8.0842 10.3052C7.17048 10.3052 6.26493 10.4147 5.36757 10.6338C4.4703 10.8528 3.5901 11.1749 2.72701 11.6L2.727 11.6L2.72615 11.6005C2.5217 11.7112 2.35927 11.8545 2.23951 12.0305C2.11946 12.207 2.0592 12.3994 2.0592 12.6071V13.3302ZM8.0842 7.18977C7.1284 7.18977 6.3108 6.84974 5.63003 6.16899C4.94927 5.48823 4.60923 4.67062 4.60923 3.71482C4.60923 2.759 4.94927 1.9414 5.63003 1.26065C6.3108 0.579881 7.1284 0.239844 8.0842 0.239844C9.04 0.239844 9.85761 0.579881 10.5384 1.26065C11.2191 1.9414 11.5592 2.759 11.5592 3.71482C11.5592 4.67062 11.2191 5.48823 10.5384 6.16899C9.85761 6.84974 9.04 7.18977 8.0842 7.18977ZM0.609229 14.8051V12.6071C0.609229 12.1222 0.740857 11.6733 1.00436 11.26C1.26791 10.8465 1.6199 10.5288 2.06072 10.3064C3.04761 9.8226 4.04297 9.45981 5.04681 9.21797C6.05068 8.97613 7.06313 8.85522 8.0842 8.85522C9.10528 8.85522 10.1177 8.97613 11.1216 9.21797C12.1254 9.45981 13.1208 9.8226 14.1077 10.3064C14.5485 10.5288 14.9005 10.8465 15.164 11.26C15.4276 11.6733 15.5592 12.1222 15.5592 12.6071V14.8051H0.609229ZM8.0842 5.73982C8.64089 5.73982 9.11806 5.54132 9.51438 5.145C9.9107 4.74868 10.1092 4.2715 10.1092 3.71482C10.1092 3.15814 9.9107 2.68096 9.51438 2.28464C9.11806 1.88832 8.64089 1.68982 8.0842 1.68982C7.52752 1.68982 7.05034 1.88832 6.65403 2.28464C6.25771 2.68096 6.0592 3.15814 6.0592 3.71482C6.0592 4.2715 6.25771 4.74868 6.65403 5.145C7.05034 5.54132 7.52752 5.73982 8.0842 5.73982Z" fill="#9AA5B6" stroke="white" stroke-width="0.05"/>
</svg>
