<svg width="18" height="18" viewBox="0 0 18 18" fill="none" xmlns="http://www.w3.org/2000/svg">
<path d="M3.65223 13.7352C4.41276 13.1709 5.24125 12.7252 6.13771 12.3983C7.03416 12.0714 7.98826 11.9079 9 11.9079C10.0117 11.9079 10.9658 12.0714 11.8623 12.3983C12.7587 12.7252 13.5872 13.1709 14.3478 13.7352C14.9041 13.1238 15.3449 12.4161 15.6701 11.612C15.9953 10.8078 16.1579 9.93718 16.1579 9C16.1579 7.01666 15.4608 5.32784 14.0665 3.93354C12.6722 2.53924 10.9833 1.84209 9 1.84209C7.01666 1.84209 5.32784 2.53924 3.93354 3.93354C2.53924 5.32784 1.84209 7.01666 1.84209 9C1.84209 9.93718 2.00469 10.8078 2.3299 11.612C2.65511 12.4161 3.09588 13.1238 3.65223 13.7352ZM9.00027 9.67103C8.18336 9.67103 7.49444 9.39066 6.93351 8.82991C6.37258 8.26915 6.09212 7.58032 6.09212 6.76342C6.09212 5.94651 6.37249 5.25759 6.93324 4.69666C7.494 4.13574 8.18283 3.85527 8.99973 3.85527C9.81664 3.85527 10.5056 4.13565 11.0665 4.69639C11.6274 5.25716 11.9079 5.94599 11.9079 6.76288C11.9079 7.57979 11.6275 8.26871 11.0668 8.82964C10.506 9.39057 9.81716 9.67103 9.00027 9.67103ZM9 17.5C7.81963 17.5 6.7124 17.278 5.6783 16.8341C4.64419 16.3902 3.74458 15.7856 2.97946 15.0205C2.21435 14.2554 1.60983 13.3558 1.16591 12.3217C0.72197 11.2876 0.5 10.1804 0.5 9C0.5 7.81963 0.72197 6.7124 1.16591 5.6783C1.60983 4.64419 2.21435 3.74458 2.97946 2.97946C3.74458 2.21435 4.64419 1.60983 5.6783 1.16591C6.7124 0.72197 7.81963 0.5 9 0.5C10.1804 0.5 11.2876 0.72197 12.3217 1.16591C13.3558 1.60983 14.2554 2.21435 15.0205 2.97946C15.7856 3.74458 16.3902 4.64419 16.8341 5.6783C17.278 6.7124 17.5 7.81963 17.5 9C17.5 10.1804 17.278 11.2876 16.8341 12.3217C16.3902 13.3558 15.7856 14.2554 15.0205 15.0205C14.2554 15.7856 13.3558 16.3902 12.3217 16.8341C11.2876 17.278 10.1804 17.5 9 17.5ZM9 16.1579C9.80756 16.1579 10.5862 16.028 11.3358 15.7682C12.0854 15.5084 12.751 15.145 13.3326 14.6781C12.751 14.2285 12.094 13.878 11.3616 13.6268C10.6292 13.3756 9.84198 13.25 9 13.25C8.15802 13.25 7.36938 13.3742 6.63409 13.6225C5.89879 13.8709 5.24322 14.2227 4.66738 14.6781C5.24896 15.145 5.91457 15.5084 6.66422 15.7682C7.41384 16.028 8.19244 16.1579 9 16.1579ZM9 8.32897C9.44507 8.32897 9.81731 8.17927 10.1167 7.87988C10.4161 7.58047 10.5658 7.20822 10.5658 6.76315C10.5658 6.31808 10.4161 5.94584 10.1167 5.64643C9.81731 5.34703 9.44507 5.19734 9 5.19734C8.55493 5.19734 8.18268 5.34703 7.88328 5.64643C7.58388 5.94584 7.43418 6.31808 7.43418 6.76315C7.43418 7.20822 7.58388 7.58047 7.88328 7.87988C8.18268 8.17927 8.55493 8.32897 9 8.32897Z" fill="#7F7D83"/>
</svg>
