<svg width="12" height="15" viewBox="0 0 12 15" fill="none" xmlns="http://www.w3.org/2000/svg">
<path d="M3.08885 11.6856H8.61514V10.5803H3.08885V11.6856ZM3.08885 8.73819H8.61514V7.63296H3.08885V8.73819ZM1.65768 14.4487C1.28547 14.4487 0.970422 14.3198 0.712527 14.0619C0.454631 13.804 0.325684 13.4889 0.325684 13.1167V1.78072C0.325684 1.40852 0.454631 1.09347 0.712527 0.835574C0.970422 0.577678 1.28547 0.44873 1.65768 0.44873H7.50991L11.3783 4.31713V13.1167C11.3783 13.4889 11.2494 13.804 10.9915 14.0619C10.7336 14.3198 10.4185 14.4487 10.0463 14.4487H1.65768ZM6.95728 4.86976V1.55398H1.65768C1.60099 1.55398 1.54902 1.57759 1.50178 1.62483C1.45455 1.67207 1.43093 1.72404 1.43093 1.78072V13.1167C1.43093 13.1734 1.45455 13.2254 1.50178 13.2726C1.54902 13.3199 1.60099 13.3435 1.65768 13.3435H10.0463C10.103 13.3435 10.155 13.3199 10.2022 13.2726C10.2494 13.2254 10.2731 13.1734 10.2731 13.1167V4.86976H6.95728Z" fill="black"/>
</svg>
