<svg width="14" height="15" viewBox="0 0 14 15" fill="none" xmlns="http://www.w3.org/2000/svg">
<path d="M11.0206 10.4927L13.8759 13.3474L12.9326 14.2907L10.0779 11.4354C9.01575 12.2869 7.69459 12.75 6.33325 12.748C3.02125 12.748 0.333252 10.06 0.333252 6.74805C0.333252 3.43605 3.02125 0.748047 6.33325 0.748047C9.64525 0.748047 12.3333 3.43605 12.3333 6.74805C12.3352 8.10938 11.8721 9.43054 11.0206 10.4927ZM9.68325 9.99805C10.5293 9.12797 11.0018 7.96167 10.9999 6.74805C10.9999 4.16938 8.91125 2.08138 6.33325 2.08138C3.75459 2.08138 1.66659 4.16938 1.66659 6.74805C1.66659 9.32605 3.75459 11.4147 6.33325 11.4147C7.54687 11.4166 8.71318 10.9441 9.58325 10.098L9.68325 9.99805Z" fill="#667085"/>
</svg>
