<svg width="17" height="13" viewBox="0 0 17 13" fill="none" xmlns="http://www.w3.org/2000/svg">
<path d="M4.01348 12.5234C2.90817 12.5234 1.96537 12.1399 1.18507 11.3731C0.40479 10.6063 0.0146484 9.66907 0.0146484 8.56145C0.0146484 7.56789 0.334303 6.69404 0.973613 5.9399C1.61292 5.18577 2.40577 4.73898 3.35215 4.59954C3.60849 3.40398 4.2096 2.42631 5.15547 1.66653C6.10135 0.906746 7.18693 0.526855 8.41221 0.526855C9.86036 0.526855 11.0888 1.03124 12.0976 2.04C13.1063 3.04875 13.6107 4.2772 13.6107 5.72534V6.12525H13.8568C14.6996 6.19087 15.4025 6.52974 15.9654 7.14187C16.5283 7.754 16.8098 8.48148 16.8098 9.32431C16.8098 10.2163 16.5022 10.9725 15.887 11.5929C15.2718 12.2132 14.5181 12.5234 13.6261 12.5234H9.25813C8.85414 12.5234 8.51219 12.3834 8.23229 12.1035C7.95237 11.8236 7.81241 11.4816 7.81241 11.0776V6.69734L6.33281 8.15232L5.48999 7.31718L8.41221 4.39498L11.3344 7.31718L10.4916 8.15232L9.01202 6.69734V11.0776C9.01202 11.1391 9.03766 11.1956 9.08894 11.2468C9.1402 11.2981 9.1966 11.3237 9.25813 11.3237H13.6107C14.1706 11.3237 14.6438 11.1305 15.0303 10.7439C15.4169 10.3573 15.6101 9.88414 15.6101 9.32431C15.6101 8.76447 15.4169 8.29127 15.0303 7.90471C14.6438 7.51816 14.1706 7.32488 13.6107 7.32488H12.4111V5.72534C12.4111 4.61899 12.0212 3.67593 11.2414 2.89615C10.4616 2.11638 9.51856 1.72649 8.41221 1.72649C7.30587 1.72649 6.3628 2.11638 5.58303 2.89615C4.80325 3.67593 4.41336 4.61899 4.41336 5.72534H3.9981C3.24037 5.72534 2.58697 5.9986 2.03789 6.5451C1.48882 7.09161 1.21428 7.75142 1.21428 8.52454C1.21428 9.29765 1.48754 9.95746 2.03405 10.504C2.58056 11.0505 3.24037 11.3237 4.01348 11.3237H6.0129V12.5234H4.01348Z" fill="black"/>
</svg>
