<svg width="42" height="43" viewBox="0 0 42 43" fill="none"
    xmlns="http://www.w3.org/2000/svg">
    <circle cx="21.208" cy="21.4482" r="20.1611" stroke="#E2E2E2"/>
    <path d="M27.8909 21.3844C27.8941 20.5083 27.7234 19.6402 27.3887 18.8306C27.054 18.0209 26.562 17.2857 25.9411 16.6676C24.687 15.4055 23.0119 14.7097 21.2321 14.7097C17.5588 14.7097 14.5654 17.7031 14.5654 21.3764V21.3765C14.5663 22.6299 14.9195 23.8578 15.5848 24.9201L15.5848 24.9201L15.5853 24.921L15.7259 25.1388L15.0718 27.5345L15.0353 27.668L15.1692 27.6329L17.6307 26.9859L17.8416 27.1125L17.8421 27.1128C18.8695 27.7195 20.0426 28.0432 21.2401 28.0432C24.9131 28.0432 27.9069 25.058 27.8909 21.3844ZM27.8909 21.3844C27.8909 21.3845 27.8909 21.3846 27.8909 21.3847L27.8109 21.3844M27.8909 21.3844C27.8909 21.3843 27.8909 21.3842 27.8909 21.384L27.8109 21.3844M27.8109 21.3844C27.8269 25.0135 24.8693 27.9632 21.2401 27.9632C20.057 27.9632 18.898 27.6435 17.8828 27.0439L14.6453 21.3764C14.6453 17.7473 17.603 14.7896 21.2321 14.7896C22.9907 14.7896 24.6454 15.477 25.8845 16.7241C26.498 17.3348 26.9842 18.0611 27.3148 18.8611C27.6455 19.6611 27.8142 20.5188 27.8109 21.3844ZM19.2359 20.9918L19.2359 20.9918C19.1714 20.8766 19.1609 20.7765 19.1934 20.6859C19.2234 20.6025 19.2869 20.5386 19.337 20.4885C19.3942 20.4313 19.4608 20.3508 19.5288 20.2687C19.562 20.2284 19.5956 20.1878 19.6286 20.1493C19.7097 20.0547 19.7466 19.9807 19.8021 19.869C19.807 19.8592 19.812 19.8492 19.8172 19.8387C19.866 19.7344 19.844 19.6502 19.8017 19.5656C19.7518 19.4659 19.3508 18.487 19.1917 18.0892C19.1155 17.9067 19.0442 17.8433 18.9922 17.8183C18.9502 17.7981 18.9165 17.7977 18.8716 17.797C18.8548 17.7968 18.8364 17.7965 18.8154 17.7952H18.4343C18.3172 17.7952 18.1323 17.8363 17.9661 18.0166C17.9525 18.0321 17.937 18.0491 17.9199 18.0678C17.7164 18.2913 17.2992 18.7494 17.2992 19.6178C17.2992 20.0874 17.471 20.5539 17.6583 20.9225C17.843 21.2861 18.0393 21.5478 18.089 21.6142L18.0906 21.6162L18.092 21.6181L18.0919 21.6181C18.0963 21.6242 18.1029 21.6339 18.1118 21.6469C18.3052 21.9293 19.5675 23.7727 21.4396 24.5804L21.4402 24.5807C21.9079 24.7868 22.2724 24.9056 22.5585 24.9931L22.5596 24.9934C23.0148 25.14 23.4326 25.1175 23.7708 25.0703C23.9475 25.0445 24.2303 24.9306 24.4903 24.7634C24.7524 24.595 24.9707 24.3855 25.0415 24.1801L25.0419 24.179C25.1235 23.9537 25.1639 23.7467 25.1773 23.587C25.184 23.507 25.1838 23.4402 25.1791 23.3896C25.1768 23.3643 25.1734 23.3442 25.1696 23.3291C25.1677 23.3217 25.1659 23.316 25.1643 23.3118L25.1623 23.3073C25.1618 23.3062 25.1615 23.3058 25.1615 23.3058C25.1448 23.2796 25.1158 23.2556 25.0575 23.2246C25.0217 23.2055 24.9813 23.1869 24.9325 23.1644C24.8989 23.149 24.8614 23.1317 24.8187 23.1112C24.7683 23.087 24.6707 23.0394 24.5499 22.9806C24.1851 22.8028 23.6078 22.5216 23.474 22.4664C23.3805 22.4339 23.3201 22.4175 23.2694 22.4231C23.2269 22.4278 23.1794 22.45 23.1204 22.5331C23.1202 22.5333 23.1201 22.5335 23.1199 22.5337L23.0547 22.4875C22.9188 22.6874 22.5431 23.135 22.4312 23.2629L19.2359 20.9918ZM19.2359 20.9918L19.2371 20.9939C19.3575 21.1946 19.7544 21.8511 20.3556 22.3873C21.0087 22.971 21.5817 23.217 21.8545 23.3341C21.8994 23.3534 21.9362 23.3692 21.9638 23.3824C22.0686 23.4368 22.1654 23.4669 22.2575 23.4562C22.3533 23.4451 22.4282 23.392 22.4921 23.3147L19.2359 20.9918ZM26.7869 15.837L26.7872 15.8373C28.267 17.3171 29.0819 19.2872 29.0819 21.3844C29.0819 25.7048 25.5605 29.2262 21.2401 29.2262C19.9266 29.2262 18.6368 28.8939 17.4893 28.2687L17.4615 28.2535L17.4308 28.2616L13.3679 29.3296L14.4506 25.3543L14.4594 25.3223L14.4429 25.2935C13.7623 24.1065 13.3983 22.7612 13.3983 21.3764C13.3983 17.056 16.9197 13.5346 21.2401 13.5346L21.2404 13.5346C22.2715 13.531 23.2929 13.7327 24.2452 14.128C25.1975 14.5233 26.0615 15.1043 26.7869 15.837Z" fill="black" stroke="white" stroke-width="0.159874"/>
</svg>
