<svg width="20" height="21" viewBox="0 0 20 21" fill="none"
    xmlns="http://www.w3.org/2000/svg">
    <path d="M9.92111 0.516464C4.60884 0.516511 0.279385 4.846 0.279385 10.1583C0.279385 11.8539 0.723266 13.5013 1.55332 14.9562L0.203711 19.9112L0.180968 19.9947L0.264664 19.9727L5.32693 18.642C6.73326 19.4045 8.31273 19.8098 9.9212 19.8098C15.2335 19.8098 19.563 15.4803 19.563 10.168C19.563 7.58986 18.5609 5.16711 16.7416 3.34776C15.8496 2.44675 14.7871 1.73236 13.6161 1.24625C12.4451 0.760145 11.189 0.512059 9.92111 0.516464ZM9.92111 0.516464C9.92114 0.516464 9.92117 0.516464 9.9212 0.516464V0.566464L9.92103 0.516464C9.92105 0.516464 9.92108 0.516464 9.92111 0.516464ZM5.55297 16.7981L2.6169 17.5697L3.39744 14.7109L3.40332 14.6893L3.39122 14.6706L3.19801 14.3711C3.19795 14.371 3.19788 14.3709 3.19782 14.3708C2.40706 13.108 1.98718 11.6483 1.98609 10.1582C1.98611 5.79164 5.54492 2.23284 9.91152 2.23284C12.0276 2.23284 14.0184 3.05994 15.5092 4.56039L15.5094 4.56058C16.2475 5.29535 16.8325 6.16932 17.2304 7.13183C17.6283 8.09435 17.8312 9.12627 17.8273 10.1678L17.8273 10.1682C17.8465 14.5345 14.2879 18.0837 9.9212 18.0837C8.49773 18.0837 7.10306 17.699 5.88148 16.9776L5.59141 16.8035L5.57335 16.7927L5.55297 16.7981ZM12.6793 11.3412L12.6793 11.3412L12.6768 11.3403C12.5672 11.3022 12.4622 11.2686 12.362 11.2797C12.2565 11.2915 12.1652 11.3509 12.0775 11.4747L12.077 11.4755C11.9144 11.7147 11.4614 12.2546 11.3257 12.4096L11.3257 12.4096L11.3248 12.4107C11.2621 12.4868 11.2026 12.5231 11.1362 12.5308C11.0674 12.5387 10.9814 12.5174 10.8638 12.4562L10.8638 12.4562L10.8623 12.4555C10.8265 12.4383 10.7796 12.4181 10.7227 12.3937C10.3903 12.2507 9.71917 11.962 8.94791 11.2728L8.94787 11.2728C8.2383 10.6399 7.76746 9.86237 7.62217 9.62023C7.5601 9.50911 7.55939 9.4325 7.58119 9.37184C7.60465 9.30656 7.65664 9.2511 7.72072 9.18703C7.79488 9.11287 7.88362 9.00562 7.96861 8.9029C8.0076 8.85578 8.04581 8.8096 8.08145 8.76802C8.19187 8.6392 8.24396 8.53439 8.31078 8.39996C8.31709 8.38726 8.32354 8.37428 8.3302 8.36101L8.3307 8.35993C8.41731 8.1759 8.37238 8.02319 8.31082 7.90009C8.25395 7.78635 7.77107 6.6083 7.57693 6.12296L7.57693 6.12295L7.57666 6.12229C7.47754 5.8844 7.37176 5.77003 7.263 5.71777C7.18021 5.67799 7.09686 5.67718 7.03553 5.67659C7.01927 5.67643 7.00456 5.67629 6.99181 5.67544L6.99182 5.67533H6.98849H6.5239C6.34772 5.67533 6.08185 5.73765 5.84829 5.99153L5.84828 5.99152L5.84755 5.99235C5.8312 6.01093 5.81236 6.0316 5.79151 6.05447C5.54149 6.32876 5.0027 6.91983 5.0027 8.02892C5.0027 8.6306 5.22186 9.21953 5.45335 9.6752C5.68279 10.1268 5.92652 10.4517 5.98837 10.5342L5.98983 10.5361C5.99488 10.5433 6.00261 10.5546 6.01297 10.5698C6.24491 10.9089 7.79523 13.1761 10.1045 14.1725C10.6777 14.4251 11.1248 14.5709 11.4742 14.6777C12.0554 14.8647 12.5865 14.8348 13.006 14.7763L13.0063 14.7762C13.2481 14.741 13.6106 14.592 13.936 14.3828C14.26 14.1746 14.56 13.8984 14.6626 13.6013C14.7656 13.3167 14.8174 13.0536 14.8347 12.8471C14.8433 12.744 14.8434 12.6541 14.8368 12.5823C14.8303 12.5129 14.8169 12.453 14.7932 12.4157C14.7522 12.3513 14.6896 12.3076 14.6124 12.2665C14.566 12.2418 14.5103 12.2161 14.4472 12.187C14.4069 12.1684 14.3636 12.1484 14.3177 12.1264C14.2594 12.0984 14.1451 12.0428 14.0026 11.9733C13.5592 11.7573 12.8418 11.4077 12.6793 11.3412Z" fill="#3C4D57" stroke="#3C4D57" stroke-width="0.1"/>
</svg>
